<svg width="158" height="117" viewBox="0 0 158 117" fill="none" xmlns="http://www.w3.org/2000/svg">
<g filter="url(#filter0_d_1_341)">
<g clip-path="url(#clip0_1_341)">
<path fill-rule="evenodd" clip-rule="evenodd" d="M46.4803 25.3601C46.7441 25.2282 47.008 25.4921 47.1399 25.7559C47.1399 25.7559 47.5357 27.339 48.0634 27.339C48.0634 27.6029 48.0634 27.8667 47.7995 27.9987C46.876 28.3944 44.8971 28.9221 42.7863 28.9221C36.4539 28.9221 31.9684 24.4367 31.9684 18.3681C31.9684 11.9037 36.7177 7.81396 43.1821 7.81396C44.1056 7.81396 45.9526 8.07782 47.1399 8.34167C47.2718 8.47359 47.5357 8.73745 47.5357 9.0013V13.3549C47.5357 13.6187 47.2718 13.8826 47.008 13.8826H45.8206C45.5568 13.8826 45.4248 13.7506 45.2929 13.4868L44.8971 11.7717C44.6333 10.8483 43.8417 10.4525 42.2586 10.4525C37.7731 10.4525 36.3219 14.0145 36.3219 17.7084C36.3219 21.9301 38.3008 25.8878 43.314 25.8878C44.3694 26.0198 45.8206 25.7559 46.4803 25.3601ZM56.5066 26.2836C58.0898 26.2836 59.1452 25.0963 59.1452 23.909L59.0132 21.5343C59.0132 21.4024 59.0132 21.2704 58.7494 21.2704C55.3193 21.2704 54.132 22.4578 54.132 24.1728C54 25.3601 55.0555 26.2836 56.5066 26.2836ZM64.9499 26.5475C64.9499 26.2836 64.6861 26.1517 64.4222 26.1517C64.1584 26.2836 63.8945 26.2836 63.6307 26.2836C62.971 26.2836 62.8391 25.8878 62.8391 25.3601V18.3681C62.8391 14.2783 60.3325 12.6952 56.6386 12.6952C54.7916 12.6952 52.8127 13.091 51.4934 13.6187C51.2296 13.7506 51.0977 14.0145 51.2296 14.2783L51.6254 16.1253C51.7573 16.5211 52.0212 16.5211 52.285 16.3892C53.2085 15.8615 54.3958 15.5976 55.5832 15.5976C57.562 15.5976 59.0132 16.3892 59.0132 18.1042V18.6319C59.0132 18.8958 58.8813 19.1596 58.7494 19.1596C54.132 19.1596 50.3061 20.6108 50.3061 24.8324C50.3061 27.2071 52.0212 29.0541 54.7916 29.0541C57.2982 29.0541 58.4855 27.9987 59.409 26.9433H59.5409C59.6729 28.1306 60.3325 29.0541 62.0475 29.0541C62.971 29.0541 64.5541 28.7902 64.818 28.5264C65.0818 28.3944 65.0818 28.2625 65.0818 27.9987L64.9499 26.5475ZM75.1082 15.7295C73.5251 15.7295 72.3378 16.653 72.3378 18.1042V24.1728C72.3378 25.4921 73.2613 26.2836 74.8444 26.2836C77.7467 26.2836 78.8022 23.3812 78.8022 20.7427C78.6702 18.2361 77.6148 15.7295 75.1082 15.7295ZM74.7124 34.463C74.9763 34.463 75.2401 34.1992 75.2401 33.9353V33.1438C75.2401 32.8799 75.1082 32.6161 74.8444 32.6161L72.9974 32.3522C72.7336 32.2203 72.3378 31.9564 72.3378 31.4287V28.1306C72.4697 28.1306 72.7336 28.1306 72.9974 28.1306C73.3932 28.1306 73.657 28.2625 74.0528 28.2625C79.8576 28.2625 82.7599 24.7005 82.7599 19.5554C82.7599 15.3338 80.2533 12.4314 76.6913 12.4314C74.3167 12.4314 72.9974 13.6187 71.942 14.806H71.8101L71.5462 13.3549C71.5462 13.091 71.2824 12.6952 70.8866 12.8272L66.0053 13.3549C65.7415 13.3549 65.4776 13.6187 65.4776 13.8826V14.6741C65.4776 14.938 65.6095 15.0699 65.8734 15.2018L67.3246 15.4657C67.8523 15.5976 67.9842 16.1253 67.9842 16.3892V31.8245C67.9842 32.4842 67.7204 32.748 67.3246 32.748L66.1372 33.1438C65.8734 33.2757 65.7415 33.4076 65.7415 33.6715V34.463C65.7415 34.7269 66.0053 34.9907 66.2692 34.9907L74.7124 34.463ZM94.5014 25.7559C94.8971 25.7559 95.161 25.8878 95.161 26.1517L95.6887 27.7348C95.6887 28.1306 95.6887 28.2625 95.4249 28.3944C94.5014 28.9221 92.7863 29.186 91.599 29.186C88.5647 29.186 86.4539 27.471 86.4539 24.4367V16.5211C86.4539 16.2572 86.3219 16.1253 86.0581 16.1253H83.9473C83.6834 16.1253 83.6834 15.9934 83.6834 15.7295L83.8153 14.0145C83.8153 14.0145 83.9473 13.7506 84.0792 13.7506H85.7942C86.19 13.7506 86.19 13.4868 86.19 13.2229V11.244C86.19 10.8483 86.3219 10.5844 86.7177 10.4525L89.6201 9.529C90.0159 9.39708 90.1478 9.66093 90.1478 10.0567V13.2229C90.1478 13.3549 90.2797 13.6187 90.5436 13.6187H94.3694C94.5014 13.6187 94.6333 13.7506 94.6333 13.8826V15.7295C94.6333 15.7295 94.5014 15.9934 94.3694 15.9934H90.5436C90.2797 15.9934 90.0159 16.1253 90.0159 16.3892V23.5132C90.0159 25.2282 90.9394 26.2836 92.6544 26.2836C93.1821 26.1517 93.8417 26.0198 94.5014 25.7559ZM106.111 17.1807C106.111 19.2915 104 19.9512 102.021 19.9512C101.493 19.9512 101.098 19.9512 100.834 19.8192C100.57 19.8192 100.438 19.6873 100.438 19.4235C100.306 17.4446 101.362 14.806 103.736 14.806C105.187 14.806 106.111 15.8615 106.111 17.1807ZM108.749 25.2282C109.013 24.9644 109.277 25.2282 109.409 25.4921L109.541 27.0752C109.673 27.339 109.541 27.6029 109.277 27.7348C108.09 28.5264 106.243 28.9221 104.528 28.9221C99.2507 28.9221 96.4803 25.624 96.4803 20.7427C96.4803 16.1253 100.042 12.6952 104.396 12.6952C107.298 12.6952 110.201 14.2783 110.201 17.3126C110.201 20.8747 106.507 22.1939 103.34 22.1939C102.945 22.1939 102.549 22.1939 102.153 22.1939C101.757 22.1939 101.493 22.1939 101.23 22.1939C100.966 22.1939 100.834 22.3258 100.834 22.5897C101.098 24.9644 103.472 26.4155 105.451 26.4155C106.902 26.4155 107.958 25.8878 108.749 25.4921C108.749 25.2282 108.749 25.2282 108.749 25.2282ZM120.623 28.6583C120.887 28.6583 121.15 28.3944 121.15 28.1306V27.339C121.15 27.0752 121.019 26.9433 120.755 26.8113L118.908 26.5475C118.644 26.5475 118.248 26.1517 118.248 25.624V18.7638C118.248 17.1807 119.567 16.2572 121.019 16.2572C121.678 16.2572 122.338 16.3892 122.865 16.5211C123.129 16.653 123.525 16.3892 123.525 16.2572L124.185 13.4868C124.317 13.091 124.185 12.8272 123.921 12.8272C123.525 12.5633 122.997 12.5633 122.602 12.5633C120.623 12.5633 119.303 13.8826 118.116 15.4657H117.984L117.72 13.3549C117.72 12.9591 117.457 12.6952 117.193 12.6952L112.311 13.3549C112.048 13.3549 111.784 13.6187 111.784 13.8826V14.6741C111.784 14.938 111.916 15.0699 112.179 15.2018L113.631 15.4657C114.158 15.5976 114.29 16.1253 114.29 16.3892V25.8878C114.29 26.5475 114.026 26.8113 113.631 26.8113L112.311 27.0752C112.048 27.2071 111.916 27.339 111.916 27.6029V28.3944C111.916 28.6583 112.179 28.9221 112.443 28.9221H120.623V28.6583ZM134.475 28.1306C134.475 28.3944 134.211 28.6583 133.947 28.6583H125.768C125.504 28.6583 125.24 28.3944 125.24 28.1306V27.339C125.24 27.0752 125.372 26.9433 125.636 26.8113L126.955 26.5475C127.351 26.5475 127.615 26.1517 127.615 25.624V16.1253C127.615 15.7295 127.483 15.3338 126.955 15.2018L125.504 14.938C125.24 14.806 125.108 14.6741 125.108 14.4103V13.6187C125.108 13.3549 125.372 13.091 125.636 13.091L130.517 12.4314C130.781 12.4314 131.045 12.6952 131.045 13.091L131.309 15.4657H131.441C132.628 13.8826 134.079 12.5633 135.926 12.5633C136.322 12.5633 136.85 12.5633 137.245 12.8272C137.509 12.8272 137.641 13.091 137.509 13.4868L136.85 16.2572C136.85 16.3892 136.454 16.653 136.19 16.5211C135.662 16.3892 135.003 16.2572 134.343 16.2572C132.892 16.2572 131.573 17.1807 131.573 18.7638V25.624C131.573 26.2836 131.968 26.5475 132.232 26.5475L134.079 26.8113C134.343 26.9433 134.475 27.0752 134.475 27.339V28.1306V28.1306ZM148.063 23.909C148.063 25.0963 147.14 26.2836 145.425 26.2836C144.106 26.2836 142.918 25.3601 142.918 24.0409C142.918 22.3258 144.106 21.1385 147.536 21.1385C147.8 21.1385 147.8 21.2704 147.8 21.4024L148.063 23.909ZM153.34 26.1517C153.604 26.1517 153.868 26.2836 153.868 26.5475L154.132 28.1306C154.132 28.3944 154.132 28.5264 153.868 28.6583C153.472 28.9221 152.021 29.186 151.098 29.186C149.515 29.186 148.723 28.3944 148.591 27.0752H148.459C147.536 27.9987 146.216 29.186 143.842 29.186C141.071 29.186 139.356 27.339 139.356 24.9644C139.356 20.7427 143.182 19.2915 147.8 19.2915C147.931 19.2915 148.063 19.0277 148.063 18.7638V18.1042C148.063 16.2572 146.612 15.5976 144.633 15.5976C143.446 15.5976 142.127 15.9934 141.335 16.3892C141.071 16.5211 140.807 16.5211 140.675 16.1253L140.28 14.2783C140.148 14.0145 140.28 13.7506 140.544 13.6187C141.863 12.9591 143.842 12.6952 145.689 12.6952C149.383 12.6952 151.889 14.2783 151.889 18.3681V25.3601C151.889 26.0198 152.153 26.2836 152.813 26.2836C152.813 26.2836 153.077 26.2836 153.34 26.1517Z" fill="black"/>
<path fill-rule="evenodd" clip-rule="evenodd" d="M10.0686 17.4447H4.79156C4.65963 17.4447 4.5277 17.3127 4.65963 17.3127C4.5277 17.3127 4.5277 17.1808 4.5277 17.0489L4.65963 16.3892C4.79156 16.1254 4.79156 15.9935 4.79156 15.9935C4.79156 15.8615 4.92348 15.7296 4.92348 15.5977C4.92348 15.3338 5.05541 15.07 5.18734 14.8061C7.29815 7.02249 14.1583 0.953888 14.8179 0.294257C15.2137 0.162331 15.3456 0.162331 15.6095 0.294257C22.8654 6.75864 25.6359 13.223 25.8997 16.785V17.1808C25.8997 17.3127 25.7678 17.5766 25.504 17.5766H20.095C19.9631 17.5766 19.6992 17.5766 19.6992 17.3127C19.1715 15.07 17.1926 13.6188 15.0818 13.6188C12.839 13.6188 10.9921 15.2019 10.4644 17.3127C10.3325 17.3127 10.3325 17.4447 10.0686 17.4447ZM19.8311 19.5555H25.2401C25.2401 19.5555 25.504 19.5555 25.2401 19.6874C25.372 19.6874 25.372 19.8193 25.372 19.9512L25.2401 20.6109C25.1082 20.7428 25.1082 20.8747 25.1082 20.8747C25.1082 21.0067 24.9763 21.1386 24.9763 21.2705C24.9763 21.5344 24.8443 21.7982 24.7124 22.0621C22.4697 29.8457 15.6095 36.0462 14.9499 36.7059C14.686 36.8378 14.5541 36.8378 14.2902 36.7059C7.16623 30.2415 4.26385 23.7771 4 20.2151V19.8193C4 19.6874 4.13193 19.4235 4.39578 19.4235H9.80475C9.93668 19.4235 10.2005 19.4235 10.2005 19.6874C10.7282 21.9301 12.7071 23.3813 14.8179 23.3813C17.0607 23.3813 18.9077 21.7982 19.4354 19.6874C19.4354 19.6874 19.5673 19.5555 19.8311 19.5555Z" fill="black"/>
</g>
<path d="M5.44 97.275H6.745V102.135H12.385V97.275H13.69V108H12.385V103.23H6.745V108H5.44V97.275ZM17.3978 97.275H18.7028V108H17.3978V97.275ZM27.0738 108.135C26.2438 108.135 25.5088 108 24.8688 107.73C24.2288 107.46 23.6838 107.085 23.2338 106.605C22.7938 106.115 22.4588 105.54 22.2288 104.88C21.9988 104.21 21.8838 103.485 21.8838 102.705V102.585C21.8838 101.805 22.0088 101.08 22.2588 100.41C22.5088 99.74 22.8638 99.16 23.3238 98.67C23.7838 98.18 24.3288 97.8 24.9588 97.53C25.5988 97.25 26.3038 97.11 27.0738 97.11C27.6038 97.11 28.1138 97.175 28.6038 97.305C29.0938 97.435 29.5338 97.64 29.9238 97.92C30.3238 98.19 30.6538 98.54 30.9138 98.97C31.1838 99.4 31.3588 99.915 31.4388 100.515H30.1338C29.9838 99.665 29.6338 99.06 29.0838 98.7C28.5438 98.33 27.8838 98.145 27.1038 98.145C26.4838 98.145 25.9338 98.255 25.4538 98.475C24.9738 98.685 24.5688 98.985 24.2388 99.375C23.9088 99.765 23.6588 100.23 23.4888 100.77C23.3188 101.31 23.2338 101.91 23.2338 102.57V102.69C23.2338 103.35 23.3138 103.955 23.4738 104.505C23.6438 105.045 23.8888 105.505 24.2088 105.885C24.5288 106.265 24.9288 106.56 25.4088 106.77C25.8888 106.98 26.4438 107.085 27.0738 107.085C27.6538 107.085 28.1538 106.995 28.5738 106.815C28.9938 106.635 29.3388 106.395 29.6088 106.095C29.8888 105.785 30.0938 105.425 30.2238 105.015C30.3638 104.595 30.4388 104.145 30.4488 103.665H27.3138V102.585H31.7238V103.38C31.7238 104.16 31.6088 104.845 31.3788 105.435C31.1588 106.025 30.8438 106.52 30.4338 106.92C30.0238 107.32 29.5338 107.625 28.9638 107.835C28.3938 108.035 27.7638 108.135 27.0738 108.135ZM34.8482 97.275H36.1532V102.135H41.7932V97.275H43.0982V108H41.7932V103.23H36.1532V108H34.8482V97.275ZM46.731 97.275H52.986V98.34H48.036V101.985H52.026V103.05H48.036V106.935H53.256V108H46.731V97.275ZM59.6179 108.135C58.8979 108.135 58.2879 108.045 57.7879 107.865C57.2979 107.675 56.8929 107.425 56.5729 107.115C56.2529 106.805 56.0079 106.445 55.8379 106.035C55.6779 105.625 55.5729 105.19 55.5229 104.73H56.7829C56.8229 105.05 56.8929 105.355 56.9929 105.645C57.0929 105.925 57.2479 106.175 57.4579 106.395C57.6679 106.605 57.9429 106.775 58.2829 106.905C58.6329 107.025 59.0779 107.085 59.6179 107.085C59.9579 107.085 60.2779 107.04 60.5779 106.95C60.8779 106.85 61.1379 106.71 61.3579 106.53C61.5779 106.35 61.7479 106.135 61.8679 105.885C61.9979 105.635 62.0629 105.36 62.0629 105.06C62.0629 104.76 62.0229 104.5 61.9429 104.28C61.8629 104.05 61.7229 103.855 61.5229 103.695C61.3329 103.535 61.0679 103.4 60.7279 103.29C60.3979 103.18 59.9779 103.085 59.4679 103.005C58.9079 102.915 58.4029 102.8 57.9529 102.66C57.5129 102.52 57.1379 102.34 56.8279 102.12C56.5179 101.89 56.2829 101.61 56.1229 101.28C55.9629 100.94 55.8829 100.53 55.8829 100.05C55.8829 99.64 55.9679 99.26 56.1379 98.91C56.3079 98.55 56.5429 98.24 56.8429 97.98C57.1529 97.72 57.5179 97.515 57.9379 97.365C58.3579 97.215 58.8229 97.14 59.3329 97.14C60.4129 97.14 61.2679 97.395 61.8979 97.905C62.5379 98.405 62.9129 99.135 63.0229 100.095H61.8529C61.7229 99.415 61.4579 98.93 61.0579 98.64C60.6579 98.34 60.0829 98.19 59.3329 98.19C58.5929 98.19 58.0329 98.355 57.6529 98.685C57.2829 99.005 57.0979 99.42 57.0979 99.93C57.0979 100.19 57.1279 100.425 57.1879 100.635C57.2579 100.835 57.3829 101.01 57.5629 101.16C57.7529 101.31 58.0129 101.445 58.3429 101.565C58.6829 101.675 59.1279 101.77 59.6779 101.85C60.2779 101.94 60.8029 102.06 61.2529 102.21C61.7029 102.36 62.0829 102.555 62.3929 102.795C62.7029 103.035 62.9329 103.33 63.0829 103.68C63.2429 104.03 63.3229 104.46 63.3229 104.97C63.3229 105.42 63.2279 105.84 63.0379 106.23C62.8579 106.61 62.6029 106.945 62.2729 107.235C61.9429 107.515 61.5479 107.735 61.0879 107.895C60.6379 108.055 60.1479 108.135 59.6179 108.135ZM68.3071 98.34H65.1871V97.275H72.7321V98.34H69.6121V108H68.3071V98.34ZM80.1705 97.275H83.3955C83.9055 97.275 84.3855 97.33 84.8355 97.44C85.2955 97.55 85.6955 97.725 86.0355 97.965C86.3755 98.205 86.6455 98.515 86.8455 98.895C87.0455 99.265 87.1455 99.72 87.1455 100.26V100.32C87.1455 100.76 87.0755 101.15 86.9355 101.49C86.7955 101.82 86.6055 102.105 86.3655 102.345C86.1255 102.575 85.8455 102.765 85.5255 102.915C85.2055 103.065 84.8605 103.175 84.4905 103.245L87.7755 108H86.3205L83.1255 103.335H81.4755V108H80.1705V97.275ZM83.4855 102.3C84.2555 102.3 84.8405 102.135 85.2405 101.805C85.6405 101.475 85.8405 100.98 85.8405 100.32V100.26C85.8405 99.9 85.7855 99.595 85.6755 99.345C85.5655 99.095 85.4105 98.895 85.2105 98.745C85.0105 98.595 84.7605 98.49 84.4605 98.43C84.1705 98.36 83.8455 98.325 83.4855 98.325H81.4755V102.3H83.4855ZM93.3952 97.275H95.1052L98.7352 108H97.4452L96.3952 104.91H91.9702L90.9352 108H89.7052L93.3952 97.275ZM92.3302 103.875H96.0502L94.1902 98.355L92.3302 103.875ZM102.699 98.34H99.5787V97.275H107.124V98.34H104.004V108H102.699V98.34ZM109.842 97.275H116.097V98.34H111.147V101.985H115.137V103.05H111.147V106.935H116.367V108H109.842V97.275ZM122.039 106.935C122.729 106.935 123.329 106.835 123.839 106.635C124.359 106.435 124.789 106.15 125.129 105.78C125.479 105.41 125.739 104.965 125.909 104.445C126.089 103.915 126.179 103.32 126.179 102.66V102.54C126.179 101.92 126.099 101.355 125.939 100.845C125.789 100.325 125.544 99.88 125.204 99.51C124.874 99.13 124.444 98.84 123.914 98.64C123.394 98.43 122.764 98.325 122.024 98.325H120.569V106.935H122.039ZM119.264 97.275H122.099C123.019 97.275 123.819 97.41 124.499 97.68C125.179 97.95 125.744 98.32 126.194 98.79C126.644 99.26 126.979 99.815 127.199 100.455C127.419 101.095 127.529 101.79 127.529 102.54V102.675C127.529 103.415 127.419 104.11 127.199 104.76C126.989 105.41 126.659 105.975 126.209 106.455C125.759 106.935 125.189 107.315 124.499 107.595C123.819 107.865 123.009 108 122.069 108H119.264V97.275Z" fill="black"/>
<g clip-path="url(#clip1_1_341)">
<path fill-rule="evenodd" clip-rule="evenodd" d="M13.9742 57L11.5708 64.3134H4L10.2489 68.9788L7.84548 76.4183L13.9742 71.7528L20.2231 76.4183L17.8197 68.9788L23.9485 64.3134H16.3777L13.9742 57Z" fill="black"/>
<path fill-rule="evenodd" clip-rule="evenodd" d="M40.2936 57L37.8902 64.3134H30.1992L36.328 68.9788L34.0447 76.4183L40.2936 71.7528L46.4224 76.4183L44.0189 68.9788L50.2678 64.3134H42.5769L40.2936 57Z" fill="black"/>
<path fill-rule="evenodd" clip-rule="evenodd" d="M67.5719 57L65.1685 64.3134H57.5977L63.8466 68.9788L61.4431 76.4183L67.5719 71.7528L73.8208 76.4183L71.4174 68.9788L77.5461 64.3134H69.9753L67.5719 57Z" fill="black"/>
<path fill-rule="evenodd" clip-rule="evenodd" d="M94.9703 57L92.6871 64.3134H84.9961L91.1248 68.9788L88.7214 76.4183L94.9703 71.7528L101.099 76.4183L98.8158 68.9788L105.065 64.3134H97.3738L94.9703 57Z" fill="black"/>
<path fill-rule="evenodd" clip-rule="evenodd" d="M121.166 57L118.762 64.3134H111.191L117.32 68.9788L115.037 76.4183L121.166 71.7528L127.415 76.4183L125.011 68.9788L131.14 64.3134H123.449L121.166 57Z" fill="black"/>
</g>
</g>
<defs>
<filter id="filter0_d_1_341" x="0" y="0" width="158" height="124" filterUnits="userSpaceOnUse" color-interpolation-filters="sRGB">
<feFlood flood-opacity="0" result="BackgroundImageFix"/>
<feColorMatrix in="SourceAlpha" type="matrix" values="0 0 0 0 0 0 0 0 0 0 0 0 0 0 0 0 0 0 127 0" result="hardAlpha"/>
<feOffset dy="4"/>
<feGaussianBlur stdDeviation="2"/>
<feComposite in2="hardAlpha" operator="out"/>
<feColorMatrix type="matrix" values="0 0 0 0 0 0 0 0 0 0 0 0 0 0 0 0 0 0 0.25 0"/>
<feBlend mode="normal" in2="BackgroundImageFix" result="effect1_dropShadow_1_341"/>
<feBlend mode="normal" in="SourceGraphic" in2="effect1_dropShadow_1_341" result="shape"/>
</filter>
<clipPath id="clip0_1_341">
<rect width="150" height="37" fill="white" transform="translate(4)"/>
</clipPath>
<clipPath id="clip1_1_341">
<rect width="128" height="20" fill="white" transform="translate(4 57)"/>
</clipPath>
</defs>
</svg>
